<?xml version="1.0" encoding="iso-8859-1"?>
<!-- Generator: Adobe Illustrator 16.0.0, SVG Export Plug-In . SVG Version: 6.00 Build 0)  -->
<!DOCTYPE svg PUBLIC "-//W3C//DTD SVG 1.1//EN" "http://www.w3.org/Graphics/SVG/1.1/DTD/svg11.dtd">
<svg version="1.1" id="Layer_1" xmlns="http://www.w3.org/2000/svg" xmlns:xlink="http://www.w3.org/1999/xlink" x="0px" y="0px"
	 width="19px" height="19px" viewBox="0 0 19 19" style="enable-background:new 0 0 19 19;" xml:space="preserve">
<path style="fill:#FFFFFF;stroke:#43AEEC;stroke-miterlimit:10;" d="M13.938,14.625c0,1.105-0.896,2-2,2H5.604c-1.104,0-2-0.895-2-2
	V7.792c0-1.104,0.896-2,2-2h6.334c1.104,0,2,0.896,2,2V14.625z"/>
<path style="fill:#FFFFFF;stroke:#43AEEC;stroke-miterlimit:10;" d="M15.042,5.583c0,0.737-0.597,1.333-1.333,1.333H4.083
	c-0.736,0-1.333-0.597-1.333-1.333l0,0c0-0.736,0.597-1.333,1.333-1.333h9.626C14.445,4.25,15.042,4.847,15.042,5.583L15.042,5.583z
	"/>
<path style="fill:#FFFFFF;stroke:#43AEEC;stroke-miterlimit:10;" d="M11.917,3.333c0,0.507-0.457,0.917-1.021,0.917h-4.25
	c-0.564,0-1.021-0.41-1.021-0.917l0,0c0-0.506,0.457-0.917,1.021-0.917h4.25C11.46,2.417,11.917,2.827,11.917,3.333L11.917,3.333z"
	/>
<rect x="5.333" y="8.458" style="fill:#FFFFFF;stroke:#43AEEC;stroke-width:0.5;stroke-miterlimit:10;" width="1.375" height="6.5"/>
<rect x="8.083" y="8.458" style="fill:#FFFFFF;stroke:#43AEEC;stroke-width:0.5;stroke-miterlimit:10;" width="1.375" height="6.5"/>
<rect x="10.833" y="8.458" style="fill:#FFFFFF;stroke:#43AEEC;stroke-width:0.5;stroke-miterlimit:10;" width="1.375" height="6.5"/>
</svg>
