<?xml version="1.0" encoding="utf-8"?>
<!-- Generator: Adobe Illustrator 17.1.0, SVG Export Plug-In . SVG Version: 6.00 Build 0)  -->
<!DOCTYPE svg PUBLIC "-//W3C//DTD SVG 1.1 Basic//EN" "http://www.w3.org/Graphics/SVG/1.1/DTD/svg11-basic.dtd">
<svg version="1.1" baseProfile="basic" id="Layer_1"
	 xmlns="http://www.w3.org/2000/svg" xmlns:xlink="http://www.w3.org/1999/xlink" x="0px" y="0px" viewBox="0 0 283.5 467.7"
	 xml:space="preserve">
<g>
	<g>
		<g>
			<path fill="#59C5C9" d="M220.6,160.1l-72.1-41.5c-1.6-1-3.8-1.5-6.1-1.6c-0.3,0-0.3,0-0.5,0c-2.6,0-5,0.5-7,1.6l-72,41.5
				c-3.7,2.2-6.9,7.6-6.9,11.8V255c0,4.4,3,9.7,6.9,11.8l72,41.5c1.9,1.1,4.5,1.6,7,1.6c0.3,0,0.3,0,0.5,0c2.2-0.1,4.4-0.7,6.1-1.6
				l72-41.5c3.7-2.2,6.9-7.6,6.9-11.8v-83.1C227.4,167.6,224.4,162.2,220.6,160.1z"/>
		</g>
	</g>
	<g opacity="0.6">
		<g>
			<path fill="#3D868D" d="M222.3,268.1c3.8-2.2,7-7.6,7-12.1v-84.9c0-4.4-3.1-9.9-7-12.1l-73.7-42.5c-1.6-1-5.2,2.2-7.4,2v190
				c2.2-0.1,5.7,3,7.4,2L222.3,268.1z"/>
		</g>
	</g>
	<g opacity="0.4">
		<g>
			<g>
				<path fill="#FFFFFF" d="M141.7,132.1l70.5,40.7v81.4l-70.5,40.8l-70.4-40.7v-81.4L141.7,132.1 M141.7,114.8c-2.5,0-5,0.5-7,1.6
					l-73.5,42.5c-3.8,2.3-7,7.6-7,12.1v84.9c0,4.4,3.1,9.9,7,12.1l73.6,42.5c1.9,1.1,4.5,1.6,7,1.6c0.1,0,0.1,0,0.3,0
					c2.5,0,5-0.5,6.7-1.6l73.6-42.5c3.8-2.2,7-7.6,7-12.1V171c0-4.4-3.1-9.9-7-12.1l-73.7-42.4c-1.9-1.1-4.3-1.6-6.7-1.6
					C141.9,114.8,141.8,114.8,141.7,114.8L141.7,114.8z"/>
			</g>
		</g>
	</g>
	<g>
		<g>
			<g>
				<path fill="#1A1A19" d="M141.7,124.1L141.7,124.1c1.4,0,2.2,0.3,2.3,0.4l73.6,42.5c1,0.5,2.3,2.9,2.3,4v84.9
					c0,1.1-1.4,3.5-2.3,4L144,302.4c-0.3,0.1-1,0.4-2.2,0.4h-0.1c-1.4,0-2.2-0.3-2.3-0.4l-73.6-42.3c-1-0.5-2.3-2.9-2.3-4v-85
					c0-1.1,1.4-3.5,2.3-4l73.6-42.5C139.6,124.3,140.4,124.1,141.7,124.1 M141.7,114.8c-2.5,0-5,0.5-7,1.6l-73.5,42.5
					c-3.8,2.3-7,7.6-7,12.1v84.9c0,4.4,3.1,9.9,7,12.1l73.6,42.5c1.9,1.1,4.5,1.6,7,1.6c0.1,0,0.1,0,0.3,0c2.5,0,5-0.5,6.7-1.6
					l73.6-42.5c3.8-2.2,7-7.6,7-12.1V171c0-4.4-3.1-9.9-7-12.1l-73.7-42.4c-1.9-1.1-4.3-1.6-6.7-1.6
					C141.9,114.8,141.8,114.8,141.7,114.8L141.7,114.8z"/>
			</g>
		</g>
	</g>
	<g>
		<g>
			<path fill="none" d="M61.1,268.1l73.6,42.5c2,1.1,4.6,1.6,7.1,1.6c2.5,0,5-0.5,6.7-1.6l73.6-42.5c3.8-2.2,7-7.6,7-12.1v-84.9
				c0-4.4-3.1-9.9-7-12.1l-73.6-42.5c-1.9-1.1-4.3-1.6-6.7-1.6c-2.6,0-5.2,0.5-7.1,1.6l-73.6,42.5c-3.8,2.2-7,7.6-7,12.1V256
				C54.2,260.4,57.3,265.8,61.1,268.1z"/>
		</g>
	</g>
	<g>
		<g>
			<g>
				<path fill="#1A1A19" d="M141.7,124.1L141.7,124.1c1.4,0,2.2,0.3,2.3,0.4l73.6,42.5c1,0.5,2.3,2.9,2.3,4v84.9
					c0,1.1-1.4,3.5-2.3,4L144,302.4c-0.3,0.1-1,0.4-2.2,0.4h-0.1c-1.4,0-2.2-0.3-2.3-0.4l-73.6-42.3c-1-0.5-2.3-2.9-2.3-4v-85
					c0-1.1,1.4-3.5,2.3-4l73.6-42.5C139.6,124.3,140.4,124.1,141.7,124.1 M141.7,114.8c-2.5,0-5,0.5-7,1.6l-73.5,42.5
					c-3.8,2.3-7,7.6-7,12.1v84.9c0,4.4,3.1,9.9,7,12.1l73.6,42.5c1.9,1.1,4.5,1.6,7,1.6c0.1,0,0.1,0,0.3,0c2.5,0,5-0.5,6.7-1.6
					l73.6-42.5c3.8-2.2,7-7.6,7-12.1V171c0-4.4-3.1-9.9-7-12.1l-73.7-42.4c-1.9-1.1-4.3-1.6-6.7-1.6
					C141.9,114.8,141.8,114.8,141.7,114.8L141.7,114.8z"/>
			</g>
		</g>
	</g>
	<g>
		<g>
			<g>
				<path fill="#1A1A19" d="M141.7,124.1L141.7,124.1c1.4,0,2.2,0.3,2.3,0.4l73.6,42.5c1,0.5,2.3,2.9,2.3,4v84.9
					c0,1.1-1.4,3.5-2.3,4L144,302.4c-0.3,0.1-1,0.4-2.2,0.4h-0.1c-1.4,0-2.2-0.3-2.3-0.4l-73.6-42.3c-1-0.5-2.3-2.9-2.3-4v-85
					c0-1.1,1.4-3.5,2.3-4l73.6-42.5C139.6,124.3,140.4,124.1,141.7,124.1 M141.7,114.8c-2.5,0-5,0.5-7,1.6l-73.5,42.5
					c-3.8,2.3-7,7.6-7,12.1v84.9c0,4.4,3.1,9.9,7,12.1l73.6,42.5c1.9,1.1,4.5,1.6,7,1.6c0.1,0,0.1,0,0.3,0c2.5,0,5-0.5,6.7-1.6
					l73.6-42.5c3.8-2.2,7-7.6,7-12.1V171c0-4.4-3.1-9.9-7-12.1l-73.7-42.4c-1.9-1.1-4.3-1.6-6.7-1.6
					C141.9,114.8,141.8,114.8,141.7,114.8L141.7,114.8z"/>
			</g>
		</g>
	</g>
</g>
<g>
	<path fill="#FFFFFF" d="M107.6,210c-12.8,0-23.1,10.4-23.1,23.4s10.3,23.4,23.1,23.4s23.1-10.4,23.1-23.4
		C130.8,220.4,120.4,210,107.6,210z M107.6,252.5c-10.3,0-18.9-8.5-18.9-19.1c0-10.4,8.4-18.9,18.9-18.9s18.9,8.5,18.9,18.9
		C126.5,243.9,118,252.5,107.6,252.5z"/>
	<path fill="#FFFFFF" d="M175.8,210.2c-12.8,0-23.1,10.4-23.1,23.4c0,12.9,10.3,23.4,23.1,23.4c12.8,0,23.1-10.4,23.1-23.4
		C198.9,220.6,188.5,210.2,175.8,210.2z M175.8,252.7c-10.4,0-18.9-8.5-18.9-19.1s8.4-18.9,18.9-18.9c10.3,0,18.9,8.5,18.9,18.9
		C194.6,244.1,186.2,252.7,175.8,252.7z"/>
	<path fill="#FFFFFF" d="M152.7,176.6c4.8,0,8.8-3.9,8.8-8.8s-3.9-8.8-8.8-8.8s-8.8,3.9-8.8,8.8C144,172.7,147.9,176.6,152.7,176.6z
		"/>
	<path fill="#FFFFFF" d="M153,197.9h16.9c5.2,0,5.2-6.9,0-6.9h-14.5l-9.6-15.2c0,0-2-3.4-5.9-3.4c0,0-3.1-0.4-5.5,2.2l-18.4,18.5
		c-1.2,1.4-1.9,3-1.9,5c0,2.7,1.5,5.2,3.7,6.4l18.8,10.6v19.7c0,2.8,2.2,5,5,5c2.8,0,5-2.2,5-5v-24.7c0,0,0.7-3.9-3.8-6.1l-10.8-5.7
		l11.6-11.6l5.7,8.9C150.4,197.2,151.8,197.9,153,197.9L153,197.9L153,197.9z"/>
</g>
</svg>
